<?xml version="1.0" encoding="utf-8"?>
<!-- Generator: Adobe Illustrator 16.0.0, SVG Export Plug-In . SVG Version: 6.00 Build 0)  -->
<!DOCTYPE svg PUBLIC "-//W3C//DTD SVG 1.1//EN" "http://www.w3.org/Graphics/SVG/1.1/DTD/svg11.dtd">
<svg version="1.1" id="Layer_1" xmlns="http://www.w3.org/2000/svg" xmlns:xlink="http://www.w3.org/1999/xlink" x="0px" y="0px"
	 width="166px" height="49px" viewBox="0 0 166 49" enable-background="new 0 0 166 49" xml:space="preserve">
<g>
	<path fill="#FFFFFF" d="M0,14.13v0.123l27.95,13.13L56,14.209v-0.033L27.95,1L0,14.13z M10.077,14.192L27.95,5.795l17.877,8.397
		L27.95,22.588L10.077,14.192L10.077,14.192z M27.95,32.482L0,19.55v4.784l27.95,12.964L56,24.289v-4.784L27.95,32.482z
		 M27.95,42.186L0,29.25v4.783L27.95,47L56,33.99v-4.784L27.95,42.186z"/>
	<g transform="translate(72)">
		<defs>
			<filter id="Adobe_OpacityMaskFilter" filterUnits="userSpaceOnUse" x="0.015" y="0.029" width="93.959" height="48.29">
				<feColorMatrix  type="matrix" values="1 0 0 0 0  0 1 0 0 0  0 0 1 0 0  0 0 0 1 0"/>
			</filter>
		</defs>
		<mask maskUnits="userSpaceOnUse" x="0.015" y="0.029" width="93.959" height="48.29" id="b">
			<g filter="url(#Adobe_OpacityMaskFilter)">
				<path id="a" fill="#FFFFFF" d="M0.014,0.03h93.96V48.32H0.015L0.014,0.03z"/>
			</g>
		</mask>
		<path mask="url(#b)" fill="#FFFFFF" d="M87.561,24.152c0.016-2.065-0.757-4.059-2.162-5.573c-0.66-0.708-1.455-1.277-2.34-1.673
			c-0.896-0.402-1.867-0.607-2.85-0.601c-1.01,0-1.961,0.2-2.852,0.601c-0.885,0.396-1.68,0.964-2.34,1.673
			c-1.404,1.515-2.178,3.508-2.16,5.574c-0.018,2.066,0.756,4.058,2.16,5.574c0.66,0.707,1.455,1.275,2.34,1.672
			c0.896,0.402,1.868,0.607,2.851,0.602c1.01,0,1.96-0.2,2.853-0.602c0.883-0.396,1.678-0.965,2.338-1.672
			c1.404-1.516,2.178-3.51,2.16-5.575H87.561z M93.975,24.152c0,1.932-0.356,3.723-1.07,5.374c-0.684,1.608-1.684,3.063-2.939,4.279
			c-1.247,1.205-2.71,2.156-4.388,2.854c-1.679,0.698-3.468,1.048-5.369,1.048c-1.899,0-3.683-0.35-5.347-1.048
			c-1.624-0.673-3.105-1.649-4.365-2.876c-1.253-1.227-2.252-2.689-2.939-4.303c-0.714-1.649-1.07-3.426-1.07-5.329
			c0-1.873,0.363-3.634,1.092-5.284c0.705-1.616,1.709-3.084,2.962-4.325c1.255-1.239,2.737-2.223,4.367-2.898
			c1.679-0.702,3.481-1.058,5.301-1.048c1.901,0,3.69,0.35,5.369,1.048c1.678,0.698,3.14,1.65,4.388,2.854s2.229,2.638,2.939,4.302
			C93.618,20.466,93.975,22.25,93.975,24.152z M64.258,36.904c-0.549,0.254-1.125,0.448-1.715,0.58
			c-0.639,0.148-1.3,0.223-1.982,0.223c-0.926,0.004-1.849-0.125-2.74-0.379c-0.845-0.236-1.628-0.654-2.295-1.227
			c-0.652-0.564-1.172-1.3-1.56-2.207c-0.385-0.906-0.577-2-0.577-3.276V0.029h6.549v29.474c0,1.07,0.215,1.806,0.646,2.207
			s0.942,0.603,1.537,0.603c0.741,0,1.455-0.224,2.138-0.67V36.904z M50.492,11.22L38.908,41.854
			c-0.861,2.289-1.99,3.939-3.387,4.951c-1.396,1.01-3.06,1.514-4.989,1.514c-0.298,0-0.623-0.021-0.98-0.065
			c-0.346-0.042-0.688-0.11-1.024-0.201l-2.139-5.975c0.501,0.235,1.023,0.423,1.561,0.557c0.533,0.134,1.039,0.201,1.514,0.201
			c1.01,0,1.93-0.229,2.762-0.69s1.471-1.315,1.916-2.564l0.892-2.586l-9.935-25.773h6.994l5.926,16.587l5.569-16.587L50.492,11.22
			L50.492,11.22z M23.538,7.342H6.786v8.294h16.528v5.618H6.785v15.784h-6.77V1.412h23.524L23.538,7.342L23.538,7.342z"/>
	</g>
</g>
</svg>
